<svg width="166" height="115" viewBox="0 0 166 115" fill="none" xmlns="http://www.w3.org/2000/svg">
<mask id="mask0" style="mask-type:alpha" maskUnits="userSpaceOnUse" x="0" y="23" width="165" height="92">
<path d="M24 23H155V39.5H13.5V58H165V75H27V92.5H163.5V115H0V75V23H24Z" fill="#C4C4C4"/>
</mask>
<g mask="url(#mask0)">
<path d="M32.6941 32L35.7691 14.5H41.4941C42.3108 14.5 42.9108 14.7417 43.2941 15.225C43.6941 15.6917 43.8191 16.3417 43.6691 17.175L42.6441 23.05C42.4275 24.2167 41.8691 24.95 40.9691 25.25L41.4691 32H38.4191L37.9691 25.475H37.1441L35.9941 32H32.6941ZM37.6441 22.675H38.9941C39.2608 22.675 39.4191 22.5333 39.4691 22.25L40.2691 17.675C40.3191 17.425 40.2191 17.3 39.9691 17.3H38.5691L37.6441 22.675ZM44.8377 32L47.9127 14.5H54.6627L54.1877 17.3H50.7127L49.9377 21.7H53.2377L52.7627 24.5H49.4627L48.6377 29.2H52.1877L51.6877 32H44.8377ZM54.5223 32L60.2473 14.5H64.4973L64.0223 32H60.7223L60.8973 29.2H58.6223L57.8223 32H54.5223ZM59.4223 26.4H61.0973L61.5723 18.9L59.4223 26.4ZM67.2205 32L70.2955 14.5H76.0455C76.8622 14.5 77.4622 14.7417 77.8455 15.225C78.2455 15.6917 78.3705 16.3417 78.2205 17.175L76.0455 29.575C75.7788 31.1917 74.8205 32 73.1705 32H67.2205ZM70.9955 29.2H72.3955C72.6622 29.2 72.8205 29.0583 72.8705 28.775L74.8455 17.675C74.8955 17.425 74.7955 17.3 74.5455 17.3H73.0955L70.9955 29.2ZM84.1658 32L89.8908 14.5H94.1408L93.6658 32H90.3658L90.5408 29.2H88.2658L87.4658 32H84.1658ZM89.0658 26.4H90.7408L91.2158 18.9L89.0658 26.4ZM96.8641 32L99.9391 14.5H105.639C106.456 14.5 107.056 14.7417 107.439 15.225C107.839 15.6917 107.964 16.3417 107.814 17.175L107.164 20.925C107.064 21.4917 106.881 21.95 106.614 22.3C106.364 22.65 105.981 22.9167 105.464 23.1C106.297 23.4333 106.614 24.2083 106.414 25.425L105.689 29.575C105.422 31.1917 104.464 32 102.814 32H96.8641ZM101.989 21.65H103.389C103.656 21.65 103.814 21.5083 103.864 21.225L104.489 17.675C104.539 17.425 104.439 17.3 104.189 17.3H102.739L101.989 21.65ZM100.689 29.2H102.064C102.331 29.2 102.489 29.0583 102.539 28.775L103.239 24.825C103.289 24.575 103.189 24.45 102.939 24.45H101.489L100.689 29.2ZM111.68 32.1C110.864 32.1 110.255 31.8667 109.855 31.4C109.472 30.9167 109.355 30.2583 109.505 29.425L111.73 16.825C111.997 15.2083 112.955 14.4 114.605 14.4H117.93C118.747 14.4 119.347 14.6417 119.73 15.125C120.13 15.5917 120.255 16.2417 120.105 17.075L117.88 29.675C117.58 31.2917 116.622 32.1 115.005 32.1H111.68ZM113.205 29.3H114.255C114.505 29.3 114.664 29.1583 114.73 28.875L116.705 17.575C116.755 17.325 116.655 17.2 116.405 17.2H115.355C115.105 17.2 114.947 17.3417 114.88 17.625L112.905 28.925C112.855 29.175 112.955 29.3 113.205 29.3ZM124.021 32.125C123.188 32.125 122.571 31.8833 122.171 31.4C121.771 30.9167 121.646 30.2583 121.796 29.425L124.421 14.5H127.721L125.171 28.95C125.121 29.2 125.221 29.325 125.471 29.325H126.496C126.763 29.325 126.921 29.1833 126.971 28.9L129.521 14.5H132.821L130.146 29.675C129.879 31.3083 128.913 32.125 127.246 32.125H124.021ZM135.562 32L138.137 17.3H135.787L136.262 14.5H144.312L143.837 17.3H141.437L138.862 32H135.562ZM42.8717 67.1C42.055 67.1 41.4467 66.8667 41.0467 66.4C40.6633 65.9167 40.5467 65.2583 40.6967 64.425L42.9217 51.825C43.1883 50.2083 44.1467 49.4 45.7967 49.4H49.0967C49.9133 49.4 50.5133 49.6417 50.8967 50.125C51.2967 50.5917 51.4217 51.2417 51.2717 52.075L50.5717 56.1H47.2717L47.8967 52.575C47.9467 52.325 47.8467 52.2 47.5967 52.2H46.5467C46.2967 52.2 46.1383 52.3417 46.0717 52.625L44.0967 63.925C44.0467 64.175 44.1467 64.3 44.3967 64.3H45.8217L46.5217 60.35H45.4717L45.9467 57.55H50.2967L48.6467 67H45.6467L45.8967 65.85L44.6717 67.1H42.8717ZM51.7391 67L57.4641 49.5H61.7141L61.2391 67H57.9391L58.1141 64.2H55.8391L55.0391 67H51.7391ZM56.6391 61.4H58.3141L58.7891 53.9L56.6391 61.4ZM64.4373 67L67.5123 49.5H72.3123L71.7123 60.075L74.7373 49.5H79.7123L76.6373 67H73.3373L75.3373 55.65L71.8623 67H69.1123L69.5873 55.65L67.5873 67H64.4373ZM80.5604 67L83.6354 49.5H90.3854L89.9104 52.3H86.4354L85.6604 56.7H88.9604L88.4854 59.5H85.1854L84.3604 64.2H87.9104L87.4104 67H80.5604ZM90.5949 67L91.0949 64.2L97.3949 52.3H93.2949L93.7699 49.5H101.27L100.795 52.3L94.4949 64.2H98.6949L98.1949 67H90.5949ZM104.297 67.1C103.481 67.1 102.872 66.8667 102.472 66.4C102.089 65.9167 101.972 65.2583 102.122 64.425L104.347 51.825C104.614 50.2083 105.572 49.4 107.222 49.4H110.547C111.364 49.4 111.964 49.6417 112.347 50.125C112.747 50.5917 112.872 51.2417 112.722 52.075L110.497 64.675C110.197 66.2917 109.239 67.1 107.622 67.1H104.297ZM105.822 64.3H106.872C107.122 64.3 107.281 64.1583 107.347 63.875L109.322 52.575C109.372 52.325 109.272 52.2 109.022 52.2H107.972C107.722 52.2 107.564 52.3417 107.497 52.625L105.522 63.925C105.472 64.175 105.572 64.3 105.822 64.3ZM113.988 67L117.063 49.5H120.363L121.363 55.85L122.513 49.5H125.813L122.738 67H119.438L120.263 62.45L119.238 56.1L117.288 67H113.988ZM126.669 67L129.744 49.5H136.494L136.019 52.3H132.544L131.769 56.7H135.069L134.594 59.5H131.294L130.469 64.2H134.019L133.519 67H126.669ZM50.6971 102L53.7721 84.5H57.0721L54.4971 99.2H57.8971L57.4221 102H50.6971ZM60.8631 102L63.9381 84.5H70.6881L70.2131 87.3H66.7381L65.9631 91.7H69.2631L68.7881 94.5H65.4881L64.6631 99.2H68.2131L67.7131 102H60.8631ZM73.3227 102L73.7727 84.5H77.0477L76.1727 97.6L79.9477 84.5H83.2727L77.5727 102H73.3227ZM83.4656 102L86.5406 84.5H93.2906L92.8156 87.3H89.3406L88.5656 91.7H91.8656L91.3906 94.5H88.0906L87.2656 99.2H90.8156L90.3156 102H83.4656ZM93.9002 102L96.9752 84.5H100.275L97.7002 99.2H101.1L100.625 102H93.9002ZM114.677 102L115.177 99.2L115.352 98.2C115.502 97.35 115.827 96.6167 116.327 96L121.527 90C121.76 89.7 121.893 89.4583 121.927 89.275L122.227 87.575C122.277 87.325 122.185 87.2 121.952 87.2H120.952C120.685 87.2 120.527 87.3417 120.477 87.625L120.002 90.325H116.852L117.452 86.825C117.752 85.2083 118.718 84.4 120.352 84.4H123.452C124.285 84.4 124.893 84.6417 125.277 85.125C125.66 85.6083 125.768 86.2583 125.602 87.075L125.152 89.675C125.002 90.5583 124.668 91.2833 124.152 91.85L119.027 97.65C118.81 97.9 118.668 98.15 118.602 98.4L118.477 99.2H123.477L122.977 102H114.677Z" fill="url(#paint0_linear)"/>
</g>
<mask id="mask1" style="mask-type:alpha" maskUnits="userSpaceOnUse" x="1" y="0" width="165" height="93">
<path d="M25 0.5H156V23H14.5V35.5H166V58H28V70H164.5V92.5H1V58V0.5H25Z" fill="#C4C4C4"/>
</mask>
<g mask="url(#mask1)">
<path d="M33.6941 32L36.7691 14.5H42.4941C43.3108 14.5 43.9108 14.7417 44.2941 15.225C44.6941 15.6917 44.8191 16.3417 44.6691 17.175L43.6441 23.05C43.4275 24.2167 42.8691 24.95 41.9691 25.25L42.4691 32H39.4191L38.9691 25.475H38.1441L36.9941 32H33.6941ZM38.6441 22.675H39.9941C40.2608 22.675 40.4191 22.5333 40.4691 22.25L41.2691 17.675C41.3191 17.425 41.2191 17.3 40.9691 17.3H39.5691L38.6441 22.675ZM45.8377 32L48.9127 14.5H55.6627L55.1877 17.3H51.7127L50.9377 21.7H54.2377L53.7627 24.5H50.4627L49.6377 29.2H53.1877L52.6877 32H45.8377ZM55.5223 32L61.2473 14.5H65.4973L65.0223 32H61.7223L61.8973 29.2H59.6223L58.8223 32H55.5223ZM60.4223 26.4H62.0973L62.5723 18.9L60.4223 26.4ZM68.2205 32L71.2955 14.5H77.0455C77.8622 14.5 78.4622 14.7417 78.8455 15.225C79.2455 15.6917 79.3705 16.3417 79.2205 17.175L77.0455 29.575C76.7788 31.1917 75.8205 32 74.1705 32H68.2205ZM71.9955 29.2H73.3955C73.6622 29.2 73.8205 29.0583 73.8705 28.775L75.8455 17.675C75.8955 17.425 75.7955 17.3 75.5455 17.3H74.0955L71.9955 29.2ZM85.1658 32L90.8908 14.5H95.1408L94.6658 32H91.3658L91.5408 29.2H89.2658L88.4658 32H85.1658ZM90.0658 26.4H91.7408L92.2158 18.9L90.0658 26.4ZM97.8641 32L100.939 14.5H106.639C107.456 14.5 108.056 14.7417 108.439 15.225C108.839 15.6917 108.964 16.3417 108.814 17.175L108.164 20.925C108.064 21.4917 107.881 21.95 107.614 22.3C107.364 22.65 106.981 22.9167 106.464 23.1C107.297 23.4333 107.614 24.2083 107.414 25.425L106.689 29.575C106.422 31.1917 105.464 32 103.814 32H97.8641ZM102.989 21.65H104.389C104.656 21.65 104.814 21.5083 104.864 21.225L105.489 17.675C105.539 17.425 105.439 17.3 105.189 17.3H103.739L102.989 21.65ZM101.689 29.2H103.064C103.331 29.2 103.489 29.0583 103.539 28.775L104.239 24.825C104.289 24.575 104.189 24.45 103.939 24.45H102.489L101.689 29.2ZM112.68 32.1C111.864 32.1 111.255 31.8667 110.855 31.4C110.472 30.9167 110.355 30.2583 110.505 29.425L112.73 16.825C112.997 15.2083 113.955 14.4 115.605 14.4H118.93C119.747 14.4 120.347 14.6417 120.73 15.125C121.13 15.5917 121.255 16.2417 121.105 17.075L118.88 29.675C118.58 31.2917 117.622 32.1 116.005 32.1H112.68ZM114.205 29.3H115.255C115.505 29.3 115.664 29.1583 115.73 28.875L117.705 17.575C117.755 17.325 117.655 17.2 117.405 17.2H116.355C116.105 17.2 115.947 17.3417 115.88 17.625L113.905 28.925C113.855 29.175 113.955 29.3 114.205 29.3ZM125.021 32.125C124.188 32.125 123.571 31.8833 123.171 31.4C122.771 30.9167 122.646 30.2583 122.796 29.425L125.421 14.5H128.721L126.171 28.95C126.121 29.2 126.221 29.325 126.471 29.325H127.496C127.763 29.325 127.921 29.1833 127.971 28.9L130.521 14.5H133.821L131.146 29.675C130.879 31.3083 129.913 32.125 128.246 32.125H125.021ZM136.562 32L139.137 17.3H136.787L137.262 14.5H145.312L144.837 17.3H142.437L139.862 32H136.562ZM43.8717 67.1C43.055 67.1 42.4467 66.8667 42.0467 66.4C41.6633 65.9167 41.5467 65.2583 41.6967 64.425L43.9217 51.825C44.1883 50.2083 45.1467 49.4 46.7967 49.4H50.0967C50.9133 49.4 51.5133 49.6417 51.8967 50.125C52.2967 50.5917 52.4217 51.2417 52.2717 52.075L51.5717 56.1H48.2717L48.8967 52.575C48.9467 52.325 48.8467 52.2 48.5967 52.2H47.5467C47.2967 52.2 47.1383 52.3417 47.0717 52.625L45.0967 63.925C45.0467 64.175 45.1467 64.3 45.3967 64.3H46.8217L47.5217 60.35H46.4717L46.9467 57.55H51.2967L49.6467 67H46.6467L46.8967 65.85L45.6717 67.1H43.8717ZM52.7391 67L58.4641 49.5H62.7141L62.2391 67H58.9391L59.1141 64.2H56.8391L56.0391 67H52.7391ZM57.6391 61.4H59.3141L59.7891 53.9L57.6391 61.4ZM65.4373 67L68.5123 49.5H73.3123L72.7123 60.075L75.7373 49.5H80.7123L77.6373 67H74.3373L76.3373 55.65L72.8623 67H70.1123L70.5873 55.65L68.5873 67H65.4373ZM81.5604 67L84.6354 49.5H91.3854L90.9104 52.3H87.4354L86.6604 56.7H89.9604L89.4854 59.5H86.1854L85.3604 64.2H88.9104L88.4104 67H81.5604ZM91.5949 67L92.0949 64.2L98.3949 52.3H94.2949L94.7699 49.5H102.27L101.795 52.3L95.4949 64.2H99.6949L99.1949 67H91.5949ZM105.297 67.1C104.481 67.1 103.872 66.8667 103.472 66.4C103.089 65.9167 102.972 65.2583 103.122 64.425L105.347 51.825C105.614 50.2083 106.572 49.4 108.222 49.4H111.547C112.364 49.4 112.964 49.6417 113.347 50.125C113.747 50.5917 113.872 51.2417 113.722 52.075L111.497 64.675C111.197 66.2917 110.239 67.1 108.622 67.1H105.297ZM106.822 64.3H107.872C108.122 64.3 108.281 64.1583 108.347 63.875L110.322 52.575C110.372 52.325 110.272 52.2 110.022 52.2H108.972C108.722 52.2 108.564 52.3417 108.497 52.625L106.522 63.925C106.472 64.175 106.572 64.3 106.822 64.3ZM114.988 67L118.063 49.5H121.363L122.363 55.85L123.513 49.5H126.813L123.738 67H120.438L121.263 62.45L120.238 56.1L118.288 67H114.988ZM127.669 67L130.744 49.5H137.494L137.019 52.3H133.544L132.769 56.7H136.069L135.594 59.5H132.294L131.469 64.2H135.019L134.519 67H127.669ZM51.6971 102L54.7721 84.5H58.0721L55.4971 99.2H58.8971L58.4221 102H51.6971ZM61.8631 102L64.9381 84.5H71.6881L71.2131 87.3H67.7381L66.9631 91.7H70.2631L69.7881 94.5H66.4881L65.6631 99.2H69.2131L68.7131 102H61.8631ZM74.3227 102L74.7727 84.5H78.0477L77.1727 97.6L80.9477 84.5H84.2727L78.5727 102H74.3227ZM84.4656 102L87.5406 84.5H94.2906L93.8156 87.3H90.3406L89.5656 91.7H92.8656L92.3906 94.5H89.0906L88.2656 99.2H91.8156L91.3156 102H84.4656ZM94.9002 102L97.9752 84.5H101.275L98.7002 99.2H102.1L101.625 102H94.9002ZM115.677 102L116.177 99.2L116.352 98.2C116.502 97.35 116.827 96.6167 117.327 96L122.527 90C122.76 89.7 122.893 89.4583 122.927 89.275L123.227 87.575C123.277 87.325 123.185 87.2 122.952 87.2H121.952C121.685 87.2 121.527 87.3417 121.477 87.625L121.002 90.325H117.852L118.452 86.825C118.752 85.2083 119.718 84.4 121.352 84.4H124.452C125.285 84.4 125.893 84.6417 126.277 85.125C126.66 85.6083 126.768 86.2583 126.602 87.075L126.152 89.675C126.002 90.5583 125.668 91.2833 125.152 91.85L120.027 97.65C119.81 97.9 119.668 98.15 119.602 98.4L119.477 99.2H124.477L123.977 102H115.677Z" fill="url(#paint1_linear)"/>
</g>
<defs>
<linearGradient id="paint0_linear" x1="33" y1="-61.125" x2="-12.2273" y2="174.424" gradientUnits="userSpaceOnUse">
<stop stop-color="#00BCB0"/>
<stop offset="1" stop-color="#F7D542"/>
</linearGradient>
<linearGradient id="paint1_linear" x1="34" y1="-61.125" x2="-11.2273" y2="174.424" gradientUnits="userSpaceOnUse">
<stop stop-color="#00BCB0"/>
<stop offset="1" stop-color="#F7D542"/>
</linearGradient>
</defs>
</svg>
